Created: 11/14/2025, 11:34:38 PM

Video combination failed: Command failed: ffmpeg -i "/home/runner/workspace/temp/video-processing/9-PguAmvFE/input_0.mp4" -i "/home/runner/workspace/temp/video-processing/9-PguAmvFE/input_1.mp4" -i "/home/runner/workspace/temp/video-processing/9-PguAmvFE/background_music.mp3" -filter_complex "[0:v][1:v]concat=n=2:v=1:a=0[vout];[vout]copy[vfinal];[0:a]aresample=44100[ar0];[1:a]aresample=44100[ar1];[ar0][ar1]concat=n=2:v=0:a=1[aout];[2:a]volume=0.3[music];[aout][music]amix=inputs=2:duration=first[afinal]" -map "[vfinal]" -map "[afinal]" -c:v libx264 -preset medium -crf 23 -c:a aac -b:a 192k "/home/runner/workspace/public/video-combinations/combined_9-PguAmvFE.mp4" ffmpeg version 6.1.1 Copyright (c) 2000-2023 the FFmpeg developers built with gcc 13.2.0 (GCC) configuration: --disable-static --prefix=/nix/store/eeeeeeeeeeeeeeeeeeeeeeeeeeeeeeee-ffmpeg-6.1.1 --target_os=linux --arch=x86_64 --pkg-config=pkg-config --enable-gpl --enable-version3 --disable-nonfree --disable-static --enable-shared --enable-pic --disable-thumb --disable-small --enable-runtime-cpudetect --disable-gray --enable-swscale-alpha --enable-hardcoded-tables --enable-safe-bitstream-reader --enable-pthreads --disable-w32threads --disable-os2threads --enable-network --enable-pixelutils --datadir=/nix/store/71hcrwn1g6ncki859v14jq18i8fx84sk-ffmpeg-6.1.1-data/share/ffmpeg --enable-ffmpeg --enable-ffplay --enable-ffprobe --bindir=/nix/store/eeeeeeeeeeeeeeeeeeeeeeeeeeeeeeee-ffmpeg-6.1.1-bin/bin --enable-avcodec --enable-avdevice --enable-avfilter --enable-avformat --enable-avutil --enable-postproc --enable-swresample --enable-swscale --libdir=/nix/store/eeeeeeeeeeeeeeeeeeeeeeeeeeeeeeee-ffmpeg-6.1.1-lib/lib --incdir=/nix/store/eeeeeeeeeeeeeeeeeeeeeeeeeeeeeeee-ffmpeg-6.1.1-dev/include --enable-doc --enable-htmlpages --enable-manpages --mandir=/nix/store/eeeeeeeeeeeeeeeeeeeeeeeeeeeeeeee-ffmpeg-6.1.1-man/share/man --enable-podpages --enable-txtpages --docdir=/nix/store/eeeeeeeeeeeeeeeeeeeeeeeeeeeeeeee-ffmpeg-6.1.1-doc/share/doc/ffmpeg --enable-alsa --disable-libaom --disable-appkit --disable-libaribcaption --enable-libass --disable-audiotoolbox --disable-avfoundation --disable-avisynth --disable-libbluray --disable-libbs2b --enable-bzlib --disable-libcaca --disable-libcelt --disable-chromaprint --disable-libcodec2 --disable-coreimage --disable-cuda --disable-cuda-llvm --enable-cuvid --enable-libdav1d --disable-libdc1394 --enable-libdrm --disable-libfdk-aac --enable-ffnvcodec --disable-libflite --enable-fontconfig --enable-libfontconfig --enable-libfreetype --disable-frei0r --disable-libfribidi --disable-libgme --enable-gnutls --disable-libgsm --enable-libharfbuzz --enable-iconv --disable-libjack --disable-libjxl --disable-ladspa --enable-lzma --disable-libmfx --disable-libmodplug --enable-libmp3lame --disable-libmysofa --enable-nvdec --enable-nvenc --disable-openal --disable-opencl --disable-libopencore-amrnb --disable-libopencore-amrwb --disable-opengl --disable-libopenh264 --disable-libopenjpeg --disable-libopenmpt --enable-libopus --disable-libplacebo --enable-libpulse --disable-librav1e --disable-librtmp --disable-libsmbclient --enable-sdl2 --disable-libshaderc --enable-libsoxr --enable-libspeex --enable-libsrt --enable-libssh --disable-librsvg --enable-libsvtav1 --disable-libtensorflow --enable-libtheora --enable-libv4l2 --enable-v4l2-m2m --enable-vaapi --enable-vdpau --disable-libvpl --disable-videotoolbox --disable-libvidstab --disable-libvmaf --disable-libvo-amrwbenc --enable-libvorbis --enable-libvpx --enable-vulkan --disable-libwebp --enable-libx264 --enable-libx265 --disable-libxavs --disable-libxcb --disable-libxcb-shape --disable-libxcb-shm --disable-libxcb-xfixes --disable-xlib --disable-libxml2 --enable-libxvid --enable-libzimg --enable-zlib --disable-libzmq --disable-debug --enable-optimizations --disable-extra-warnings --disable-stripping libavutil 58. 29.100 / 58. 29.100 libavcodec 60. 31.102 / 60. 31.102 libavformat 60. 16.100 / 60. 16.100 libavdevice 60. 3.100 / 60. 3.100 libavfilter 9. 12.100 / 9. 12.100 libswscale 7. 5.100 / 7. 5.100 libswresample 4. 12.100 / 4. 12.100 libpostproc 57. 3.100 / 57. 3.100 Input #0, mov,mp4,m4a,3gp,3g2,mj2, from '/home/runner/workspace/temp/video-processing/9-PguAmvFE/input_0.mp4': Metadata: major_brand : isom minor_version : 512 compatible_brands: isomiso2avc1mp41 encoder : Google Duration: 00:00:08.00, start: 0.000000, bitrate: 10499 kb/s Stream #0:0[0x1](und): Video: h264 (High) (avc1 / 0x31637661), yuv420p(progressive), 1280x720, 10345 kb/s, 24 fps, 24 tbr, 12288 tbn (default) Metadata: handler_name : VideoHandler vendor_id : [0][0][0][0] Stream #0:1[0x2](und): Audio: aac (LC) (mp4a / 0x6134706D), 48000 Hz, stereo, fltp, 140 kb/s (default) Metadata: handler_name : SoundHandler vendor_id : [0][0][0][0] Input #1, mov,mp4,m4a,3gp,3g2,mj2, from '/home/runner/workspace/temp/video-processing/9-PguAmvFE/input_1.mp4': Metadata: major_brand : isom minor_version : 512 compatible_brands: isomiso2avc1mp41 encoder : Google Duration: 00:00:08.00, start: 0.000000, bitrate: 9189 kb/s Stream #1:0[0x1](und): Video: h264 (High) (avc1 / 0x31637661), yuv420p(progressive), 1280x720, 9034 kb/s, 24 fps, 24 tbr, 12288 tbn (default) Metadata: handler_name : VideoHandler vendor_id : [0][0][0][0] Stream #1:1[0x2](und): Audio: aac (LC) (mp4a / 0x6134706D), 48000 Hz, stereo, fltp, 140 kb/s (default) Metadata: handler_name : SoundHandler vendor_id : [0][0][0][0] [mp3 @ 0x2d27bfc0] Format mp3 detected only with low score of 1, misdetection possible! [mp3 @ 0x2d27bfc0] Failed to read frame size: Could not seek to 2000. [in#2 @ 0x2cc9fa40] Error opening input: Invalid argument Error opening input file /home/runner/workspace/temp/video-processing/9-PguAmvFE/background_music.mp3. Error opening input files: Invalid argument